<svg width="75" height="46" viewBox="0 0 75 46" fill="none" xmlns="http://www.w3.org/2000/svg">
<path d="M0.104518 14.9422C-0.627584 9.9629 42.0865 -6.66679 44.1857 3.62175C56.4413 -1.59367 75.1725 11.0904 74.6166 14.9422C74.198 17.8421 71.4759 33.6908 70.156 41.3474C69.7428 43.7445 67.664 45.4915 65.2315 45.4915H9.48649C7.05539 45.4915 4.97717 43.7455 4.56288 41.3499C3.27442 33.8997 0.651913 18.6652 0.104518 14.9422Z" fill="white"/>
<mask id="mask0_922_810" style="mask-type:alpha" maskUnits="userSpaceOnUse" x="0" y="0" width="75" height="46">
<path d="M0.104518 14.9422C-0.627584 9.9629 42.0865 -6.66679 44.1857 3.62175C56.4413 -1.59367 75.1725 11.0904 74.6166 14.9422C74.198 17.8421 71.4759 33.6908 70.156 41.3474C69.7428 43.7445 67.664 45.4915 65.2315 45.4915H9.48649C7.05539 45.4915 4.97717 43.7455 4.56288 41.3499C3.27442 33.8997 0.651913 18.6652 0.104518 14.9422Z" fill="#A96521"/>
</mask>
<g mask="url(#mask0_922_810)">
<path d="M1.74797 29.4051C6.99071 42.5457 64.1033 39.8354 73.5964 39.6298L73.373 48.7303H1.74797V29.4051Z" fill="black" fill-opacity="0.15"/>
</g>
</svg>
