<svg width="67" height="54" viewBox="0 0 67 54" fill="none" xmlns="http://www.w3.org/2000/svg">
<path d="M1.55933 17.8305C0.749002 10.1582 5.88157 3.03246 13.5118 1.89202C27.8933 -0.257484 39.2645 -0.22016 53.3749 1.89272C61.0105 3.03607 66.1481 10.1659 65.3372 17.8439L61.9366 50.0415C61.7216 52.0767 60.0052 53.6213 57.9587 53.6213H8.93925C6.89275 53.6213 5.17632 52.0767 4.96137 50.0415L1.55933 17.8305Z" fill="white"/>
<mask id="mask0_913_792" style="mask-type:alpha" maskUnits="userSpaceOnUse" x="1" y="0" width="65" height="54">
<path d="M1.55933 17.8305C0.749002 10.1582 5.88157 3.03246 13.5118 1.89202C27.8933 -0.257484 39.2645 -0.22016 53.3749 1.89272C61.0105 3.03607 66.1481 10.1659 65.3372 17.8439L61.9366 50.0415C61.7216 52.0767 60.0052 53.6213 57.9587 53.6213H8.93925C6.89275 53.6213 5.17632 52.0767 4.96137 50.0415L1.55933 17.8305Z" fill="#FFA41C"/>
</mask>
<g mask="url(#mask0_913_792)">
<path d="M1.82757 37.2899C6.29078 50.4304 54.9116 47.7201 62.9931 47.5146L62.8029 56.6151H1.82757V37.2899Z" fill="black" fill-opacity="0.15"/>
</g>
</svg>
