<svg width="70" height="55" viewBox="0 0 70 55" fill="none" xmlns="http://www.w3.org/2000/svg">
<path d="M11.9662 54.5549C6.13154 54.5549 0.791 50.6422 0.282674 44.8297C-3.93802 -3.43208 72.2533 -6.29161 69.6464 44.292C69.3348 50.3383 63.8719 54.5546 57.8175 54.5546L11.9662 54.5549Z" fill="white"/>
<path d="M33.001 4.29539C33.3404 4.02299 34.0777 4.43502 34.041 4.86864C33.8853 6.70722 34.54 7.47792 35.102 7.51304L22.1328 9.99075C23.9838 9.77297 29.9094 6.77685 33.001 4.29539Z" fill="white"/>
<mask id="mask0_909_797" style="mask-type:alpha" maskUnits="userSpaceOnUse" x="0" y="7" width="70" height="48">
<path d="M11.9662 54.5549C6.13154 54.5549 0.791 50.6422 0.282674 44.8297C-3.93802 -3.43208 72.2533 -6.29161 69.6464 44.292C69.3348 50.3383 63.8719 54.5546 57.8175 54.5546L11.9662 54.5549Z" fill="#DF882E"/>
</mask>
<g mask="url(#mask0_909_797)">
<path d="M-2.92322 34.6519C24.1333 51.7964 51.6599 46.3882 70.4572 44.9053L70.3487 45.3224C68.7527 51.4591 63.2314 55.7569 56.8907 55.7982L33.6276 55.9498L10.544 55.9798C2.50675 55.9902 -3.88914 49.2466 -3.4536 41.2211L-3.31732 38.71L-2.92322 34.6519Z" fill="black" fill-opacity="0.2"/>
</g>
</svg>
