<svg width="32" height="32" viewBox="0 0 32 32" fill="none" xmlns="http://www.w3.org/2000/svg">
<g clip-path="url(#clip0_295_192)">
<mask id="mask0_295_192" style="mask-type:luminance" maskUnits="userSpaceOnUse" x="-6" y="-6" width="44" height="44">
<path d="M9.55236 37.5188L37.5188 21.9664L21.9665 -6.00005L-6 9.55232L9.55236 37.5188Z" fill="white"/>
</mask>
<g mask="url(#mask0_295_192)">
<path d="M20.1889 16.7288C19.8491 17.1466 19.014 17.4966 18.4602 17.1181C18.0424 16.7783 17.5274 16.2637 17.576 16.3511C17.7704 16.7007 18.1592 17.3999 18.2662 17.7981C18.3246 18.1088 18.2956 18.4682 17.9946 18.75C17.7811 18.9832 17.5189 19.129 17.2567 19.2748C16.9459 19.3332 16.5865 19.3043 16.3145 19.2267C15.6733 18.8967 15.0415 17.7606 15.0901 17.848C15.1485 18.1588 15.5859 18.9453 15.6055 19.3921C15.6154 19.6155 15.363 19.9847 15.2368 20.1693C15.0232 20.4025 14.6736 20.5969 14.3628 20.6553C14.188 20.7525 13.6927 20.6847 13.5081 20.5585C13.1875 20.3935 12.6141 19.5682 12.3323 19.2672C12.2837 19.1798 12.4393 19.6654 12.4103 20.0248C12.3523 20.7436 11.226 21.5988 10.4582 20.4238C10.118 19.8121 10.1666 19.8995 9.92356 19.4625C9.68055 19.0255 9.53475 18.7633 9.34034 18.4137C9.14594 18.0642 8.79592 17.229 8.68891 16.8308C8.6305 16.52 8.55248 15.7625 8.62026 15.2671C8.62026 15.2671 8.9984 13.6837 8.79419 13.1107C8.58997 12.5378 8.58997 12.5378 8.39557 12.1882C8.20116 11.8386 7.87076 11.4502 7.87076 11.4502C7.87076 11.4502 8.52132 10.974 8.91951 10.867C9.31769 10.76 10.0949 11.1288 10.3281 11.3424C10.6487 11.5073 10.9109 11.3615 10.9398 11.0021C10.9202 10.5554 11.017 9.70059 11.2792 9.55479C11.8423 9.12718 13.1145 8.53416 13.9884 8.04815C13.9884 8.04815 14.2997 9.01931 14.8436 9.17448C15.2516 9.29087 15.9316 9.48484 16.3396 9.60122L17.4762 9.99897C17.9328 10.2027 18.7875 10.2995 19.4969 11.1637C20.1091 11.853 20.3521 12.29 20.3718 12.7368C20.3914 13.1836 20.0516 13.6014 19.8768 13.6986C19.702 13.7958 19.265 14.0388 19.0416 14.0486C18.8183 14.0584 18.6823 14.0196 18.4103 13.942C18.0897 13.777 17.9051 13.6508 18.1869 13.9518C18.4201 14.1654 18.7407 14.3304 19.0225 14.6314C19.3043 14.9323 19.8095 15.2235 20.1011 15.7479C20.538 15.5049 20.7423 16.0778 20.1889 16.7288Z" fill="white"/>
</g>
<mask id="mask1_295_192" style="mask-type:luminance" maskUnits="userSpaceOnUse" x="-6" y="-6" width="44" height="44">
<path d="M9.55236 37.5188L37.5188 21.9664L21.9665 -6.00005L-6 9.55232L9.55236 37.5188Z" fill="white"/>
</mask>
<g mask="url(#mask1_295_192)">
<path d="M20.1889 16.7288C19.8491 17.1466 19.014 17.4966 18.4602 17.1181C18.0424 16.7783 17.5274 16.2637 17.576 16.3511C17.7704 16.7007 18.1592 17.3999 18.2662 17.7981C18.3246 18.1088 18.2956 18.4682 17.9946 18.75C17.7811 18.9832 17.5189 19.129 17.2567 19.2748C16.9459 19.3332 16.5865 19.3043 16.3145 19.2267C15.6733 18.8967 15.0415 17.7606 15.0901 17.848C15.1485 18.1588 15.5859 18.9453 15.6055 19.3921C15.6154 19.6155 15.363 19.9847 15.2368 20.1693C15.0232 20.4025 14.6736 20.5969 14.3628 20.6553C14.188 20.7525 13.6927 20.6847 13.5081 20.5585C13.1875 20.3935 12.6141 19.5682 12.3323 19.2672C12.2837 19.1798 12.4393 19.6654 12.4103 20.0248C12.3523 20.7436 11.226 21.5988 10.4582 20.4238C10.118 19.8121 10.1666 19.8995 9.92356 19.4625C9.68055 19.0255 9.53475 18.7633 9.34034 18.4137C9.14594 18.0642 8.79592 17.229 8.68891 16.8308C8.6305 16.52 8.55248 15.7625 8.62026 15.2671C8.62026 15.2671 8.9984 13.6837 8.79419 13.1107C8.58997 12.5378 8.58997 12.5378 8.39557 12.1882C8.20116 11.8386 7.87076 11.4502 7.87076 11.4502C7.87076 11.4502 8.52132 10.974 8.91951 10.867C9.31769 10.76 10.0949 11.1288 10.3281 11.3424C10.6487 11.5073 10.9109 11.3615 10.9398 11.0021C10.9202 10.5554 11.017 9.70059 11.2792 9.55479C11.8423 9.12718 13.1145 8.53416 13.9884 8.04815C13.9884 8.04815 14.2997 9.01931 14.8436 9.17448C15.2516 9.29087 15.9316 9.48484 16.3396 9.60122L17.4762 9.99897C17.9328 10.2027 18.7875 10.2995 19.4969 11.1637C20.1091 11.853 20.3521 12.29 20.3718 12.7368C20.3914 13.1836 20.0516 13.6014 19.8768 13.6986C19.702 13.7958 19.265 14.0388 19.0416 14.0486C18.8183 14.0584 18.6823 14.0196 18.4103 13.942C18.0897 13.777 17.9051 13.6508 18.1869 13.9518C18.4201 14.1654 18.7407 14.3304 19.0225 14.6314C19.3043 14.9323 19.8095 15.2235 20.1011 15.7479C20.538 15.5049 20.7423 16.0778 20.1889 16.7288Z" stroke="black" stroke-width="0.75" stroke-linejoin="round"/>
</g>
<path d="M15.4026 15.3143C15.5172 13.6239 15.1609 12.9585 13.7875 12.3224" stroke="black" stroke-width="0.75" stroke-linecap="round"/>
<mask id="mask2_295_192" style="mask-type:luminance" maskUnits="userSpaceOnUse" x="-2" y="-1" width="36" height="36">
<path d="M29.7138 -0.999966L-2 3.27026L2.27023 34.9841L33.984 30.7138L29.7138 -0.999966Z" fill="white"/>
</mask>
<g mask="url(#mask2_295_192)">
<path d="M12.2221 14.4726C12.6909 14.2076 13.5962 14.1866 13.9736 14.7412C14.2385 15.2101 14.5302 15.8771 14.5168 15.778C14.4634 15.3816 14.3567 14.5888 14.4024 14.179C14.4615 13.8683 14.6197 13.5443 15.0027 13.3918C15.2867 13.2527 15.584 13.2127 15.8813 13.1726C16.192 13.2317 16.516 13.3899 16.7409 13.5614C17.2174 14.1027 17.3909 15.391 17.3775 15.2919C17.4366 14.9813 17.3165 14.0893 17.4613 13.6662C17.5338 13.4547 17.9035 13.2031 18.0884 13.0773C18.3723 12.9381 18.7688 12.8848 19.0794 12.9438C19.2776 12.9171 19.7141 13.1611 19.8399 13.3459C20.0781 13.6166 20.3107 14.5943 20.4632 14.9774C20.4765 15.0765 20.5089 14.5676 20.6671 14.2436C20.9834 13.5956 22.3442 13.2105 22.6301 14.5847C22.7235 15.2784 22.7102 15.1793 22.7769 15.6748C22.8436 16.1704 22.8837 16.4677 22.9371 16.8641C22.9904 17.2605 23.0114 18.1658 22.9657 18.5756C22.9066 18.8863 22.7027 19.62 22.4588 20.0565C22.4588 20.0565 21.5288 21.3925 21.5097 22.0005C21.4907 22.6085 21.4907 22.6085 21.5441 23.0049C21.5974 23.4013 21.7633 23.8835 21.7633 23.8835C21.7633 23.8835 20.9838 24.0894 20.574 24.0437C20.1642 23.9979 19.5753 23.3709 19.4361 23.0869C19.1979 22.8163 18.9006 22.8563 18.7424 23.1804C18.5976 23.6035 18.1955 24.3639 17.8981 24.404C17.2177 24.5965 15.8169 24.6842 14.8259 24.8176C14.8259 24.8176 14.8906 23.7999 14.4408 23.4568C14.1035 23.1996 13.5412 22.7708 13.2039 22.5135L12.2909 21.7283C11.9402 21.3719 11.1798 20.9698 10.8348 19.9063C10.5165 19.041 10.4497 18.5455 10.5946 18.1224C10.7394 17.6993 11.2083 17.4344 11.4065 17.4077C11.6047 17.381 12.1002 17.3143 12.3118 17.3867C12.5233 17.4591 12.6358 17.5448 12.8607 17.7164C13.0989 17.987 13.2247 18.1719 13.0722 17.7888C12.9331 17.5048 12.6948 17.2342 12.5424 16.8511C12.3899 16.468 12.0258 16.0125 11.9458 15.4179C11.4502 15.4846 11.4693 14.8766 12.2221 14.4726Z" fill="white"/>
</g>
<mask id="mask3_295_192" style="mask-type:luminance" maskUnits="userSpaceOnUse" x="-2" y="-1" width="36" height="36">
<path d="M29.7138 -0.999966L-2 3.27026L2.27023 34.9841L33.984 30.7138L29.7138 -0.999966Z" fill="white"/>
</mask>
<g mask="url(#mask3_295_192)">
<path d="M12.2221 14.4726C12.6909 14.2076 13.5962 14.1866 13.9736 14.7412C14.2385 15.2101 14.5302 15.8771 14.5168 15.778C14.4634 15.3816 14.3567 14.5888 14.4024 14.179C14.4615 13.8683 14.6197 13.5443 15.0027 13.3918C15.2867 13.2527 15.584 13.2127 15.8813 13.1726C16.192 13.2317 16.516 13.3899 16.7409 13.5614C17.2174 14.1027 17.3909 15.391 17.3775 15.2919C17.4366 14.9813 17.3165 14.0893 17.4613 13.6662C17.5338 13.4547 17.9035 13.2031 18.0884 13.0773C18.3723 12.9381 18.7688 12.8848 19.0794 12.9438C19.2776 12.9171 19.7141 13.1611 19.8399 13.3459C20.0781 13.6166 20.3107 14.5943 20.4632 14.9774C20.4765 15.0765 20.5089 14.5676 20.6671 14.2436C20.9834 13.5956 22.3442 13.2105 22.6301 14.5847C22.7235 15.2784 22.7102 15.1793 22.7769 15.6748C22.8436 16.1704 22.8837 16.4677 22.9371 16.8641C22.9904 17.2605 23.0114 18.1658 22.9657 18.5756C22.9066 18.8863 22.7027 19.62 22.4588 20.0565C22.4588 20.0565 21.5288 21.3925 21.5097 22.0005C21.4907 22.6085 21.4907 22.6085 21.5441 23.0049C21.5974 23.4013 21.7633 23.8835 21.7633 23.8835C21.7633 23.8835 20.9838 24.0894 20.574 24.0437C20.1642 23.9979 19.5753 23.3709 19.4361 23.0869C19.1979 22.8163 18.9006 22.8563 18.7424 23.1804C18.5976 23.6035 18.1955 24.3639 17.8981 24.404C17.2177 24.5965 15.8169 24.6842 14.8259 24.8176C14.8259 24.8176 14.8906 23.7999 14.4408 23.4568C14.1035 23.1996 13.5412 22.7708 13.2039 22.5135L12.2909 21.7283C11.9402 21.3719 11.1798 20.9698 10.8348 19.9063C10.5165 19.041 10.4497 18.5455 10.5946 18.1224C10.7394 17.6993 11.2083 17.4344 11.4065 17.4077C11.6047 17.381 12.1002 17.3143 12.3118 17.3867C12.5233 17.4591 12.6358 17.5448 12.8607 17.7164C13.0989 17.987 13.2247 18.1719 13.0722 17.7888C12.9331 17.5048 12.6948 17.2342 12.5424 16.8511C12.3899 16.468 12.0258 16.0125 11.9458 15.4179C11.4502 15.4846 11.4693 14.8766 12.2221 14.4726Z" stroke="black" stroke-width="0.75" stroke-linejoin="round"/>
</g>
<mask id="mask4_295_192" style="mask-type:luminance" maskUnits="userSpaceOnUse" x="-2" y="-1" width="36" height="36">
<path d="M29.7138 -0.999966L-2 3.27026L2.27023 34.9841L33.984 30.7138L29.7138 -0.999966Z" fill="white"/>
</mask>
<g mask="url(#mask4_295_192)">
<path d="M20.187 21.1696L19.7333 17.8" stroke="black" stroke-width="0.75" stroke-linecap="round"/>
</g>
<mask id="mask5_295_192" style="mask-type:luminance" maskUnits="userSpaceOnUse" x="-2" y="-1" width="36" height="36">
<path d="M29.7138 -0.999966L-2 3.27026L2.27023 34.9841L33.984 30.7138L29.7138 -0.999966Z" fill="white"/>
</mask>
<g mask="url(#mask5_295_192)">
<path d="M18.2049 21.4364L17.6521 18.0802" stroke="black" stroke-width="0.75" stroke-linecap="round"/>
</g>
<mask id="mask6_295_192" style="mask-type:luminance" maskUnits="userSpaceOnUse" x="-2" y="-1" width="36" height="36">
<path d="M29.7138 -0.999966L-2 3.27026L2.27023 34.9841L33.984 30.7138L29.7138 -0.999966Z" fill="white"/>
</mask>
<g mask="url(#mask6_295_192)">
<path d="M15.7691 18.3337L16.2228 21.7033" stroke="black" stroke-width="0.75" stroke-linecap="round"/>
</g>
</g>
<defs>
<clipPath id="clip0_295_192">
<rect width="32" height="32" fill="white"/>
</clipPath>
</defs>
</svg>
