<svg width="32" height="32" viewBox="0 0 32 32" fill="none" xmlns="http://www.w3.org/2000/svg">
<g clip-path="url(#clip0_295_125)">
<mask id="mask0_295_125" style="mask-type:luminance" maskUnits="userSpaceOnUse" x="-6" y="-6" width="44" height="44">
<path d="M9.52121 37.68L37.6801 22.4788L22.4788 -5.6801L-5.68006 9.52117L9.52121 37.68Z" fill="white"/>
</mask>
<g mask="url(#mask0_295_125)">
<path d="M18.7069 13.8569C18.9849 14.1614 19.2629 14.4658 19.8189 15.0748C20.2799 15.5078 20.5104 15.7243 20.8289 15.8932C21.2425 16.2382 21.4255 16.3667 21.839 16.7117C22.0695 16.9282 22.666 17.4016 22.944 17.7061C23.2695 18.0986 23.3715 18.4981 23.3381 18.8571C23.2166 19.2636 22.6956 19.7721 22.2961 19.8741C21.8966 19.9761 21.4426 19.7667 21.1241 19.5977C20.6226 19.3002 20.4871 19.2597 19.7956 18.6103C18.9686 17.9203 18.365 17.2234 18.2225 16.9594L17.897 16.5669C17.897 16.5669 18.4196 17.5348 18.4671 17.6228C18.9421 18.5028 19.4101 19.1593 19.8447 20.1747C19.8922 20.2627 20.0417 20.7502 20.0892 20.8382C20.2387 21.3257 20.2053 21.6847 19.9483 22.0507C19.6913 22.4167 19.2513 22.6542 18.7163 22.7158C18.2693 22.7298 17.9508 22.5608 17.6253 22.1683C17.5778 22.0803 17.0623 21.3359 17.0148 21.2479C16.5397 20.3679 16.2547 19.8399 15.9697 19.312C15.8747 19.136 15.2096 17.904 15.2571 17.992C15.5017 18.6555 16.6893 20.8554 16.8458 21.5664C16.9478 21.9659 16.8263 22.3724 16.5694 22.7384C16.3124 23.1044 15.6489 23.3489 15.2424 23.2274C14.8359 23.106 14.5579 22.8015 14.2324 22.409C14.0423 22.057 13.8048 21.617 13.6623 21.353C13.2348 20.5611 13.0448 20.2091 12.6647 19.5051C12.6647 19.5051 12.5222 19.2411 12.5697 19.3291C12.6242 19.6406 12.6313 19.8641 12.6383 20.0876C12.6858 20.1756 12.7473 20.7106 12.7138 21.0696C12.7208 21.2931 12.7278 21.5166 12.6944 21.8756C12.6609 22.2346 12.5324 22.4176 12.3634 22.7361C12.0184 23.1496 11.3479 23.1706 10.9344 22.8257C10.7514 22.6972 10.6019 22.2097 10.4119 21.8577C10.2149 21.2822 10.0583 20.5712 10.0038 20.2597C9.90179 19.8603 9.69775 19.0613 9.50773 18.7093C9.40571 18.3098 9.01867 17.3823 9.00465 16.9353C8.95013 16.6239 8.88159 15.8654 8.95557 15.3709C8.95557 15.3709 9.35348 13.7924 9.15645 13.2169C8.95942 12.6414 8.95942 12.6414 8.76941 12.2894C8.57939 11.9374 8.25388 11.545 8.25388 11.545C8.25388 11.545 8.91034 11.0769 9.30983 10.9749C9.70932 10.8729 10.4818 11.2513 10.7123 11.4678C11.0308 11.6368 11.2948 11.4943 11.3283 11.1353C11.3143 10.6883 11.4217 9.83481 11.7737 9.64479C12.3422 9.22427 13.6217 8.64721 14.5016 8.17217C14.5016 8.17217 14.8007 9.14714 15.3427 9.30911C15.7492 9.43059 16.4267 9.63305 16.8332 9.75453L17.9647 10.1665C18.4187 10.3759 19.0152 10.8494 19.9707 11.3563C20.4722 11.6538 21.3732 11.8493 21.8747 12.1467C22.2407 12.4037 22.6138 12.8842 22.6683 13.1957C22.7773 13.8187 22.4798 14.3202 21.8164 14.5647C21.3764 14.8022 21.0174 14.7687 20.5229 14.6948C20.2519 14.6138 19.7574 14.5398 19.4864 14.4588C19.2154 14.3778 19.1679 14.2898 18.8969 14.2089C18.6119 13.6809 18.5644 13.5929 18.7069 13.8569Z" fill="white"/>
</g>
<mask id="mask1_295_125" style="mask-type:luminance" maskUnits="userSpaceOnUse" x="-6" y="-6" width="44" height="44">
<path d="M9.52121 37.68L37.6801 22.4788L22.4788 -5.6801L-5.68006 9.52117L9.52121 37.68Z" fill="white"/>
</mask>
<g mask="url(#mask1_295_125)">
<path d="M18.7069 13.8569C18.9849 14.1614 19.2629 14.4658 19.8189 15.0748C20.2799 15.5078 20.5104 15.7243 20.8289 15.8932C21.2425 16.2382 21.4255 16.3667 21.839 16.7117C22.0695 16.9282 22.666 17.4016 22.944 17.7061C23.2695 18.0986 23.3715 18.4981 23.3381 18.8571C23.2166 19.2636 22.6956 19.7721 22.2961 19.8741C21.8966 19.9761 21.4426 19.7667 21.1241 19.5977C20.6226 19.3002 20.4871 19.2597 19.7956 18.6103C18.9686 17.9203 18.365 17.2234 18.2225 16.9594L17.897 16.5669C17.897 16.5669 18.4196 17.5348 18.4671 17.6228C18.9421 18.5028 19.4101 19.1593 19.8447 20.1747C19.8922 20.2627 20.0417 20.7502 20.0892 20.8382C20.2387 21.3257 20.2053 21.6847 19.9483 22.0507C19.6913 22.4167 19.2513 22.6542 18.7163 22.7158C18.2693 22.7298 17.9508 22.5608 17.6253 22.1683C17.5778 22.0803 17.0623 21.3359 17.0148 21.2479C16.5397 20.3679 16.2547 19.8399 15.9697 19.312C15.8747 19.136 15.2096 17.904 15.2571 17.992C15.5017 18.6555 16.6893 20.8554 16.8458 21.5664C16.9478 21.9659 16.8263 22.3724 16.5694 22.7384C16.3124 23.1044 15.6489 23.3489 15.2424 23.2274C14.8359 23.106 14.5579 22.8015 14.2324 22.409C14.0423 22.057 13.8048 21.617 13.6623 21.353C13.2348 20.5611 13.0448 20.2091 12.6647 19.5051C12.6647 19.5051 12.5222 19.2411 12.5697 19.3291C12.6242 19.6406 12.6313 19.8641 12.6383 20.0876C12.6858 20.1756 12.7473 20.7106 12.7138 21.0696C12.7208 21.2931 12.7278 21.5166 12.6944 21.8756C12.6609 22.2346 12.5324 22.4176 12.3634 22.7361C12.0184 23.1496 11.3479 23.1706 10.9344 22.8257C10.7514 22.6972 10.6019 22.2097 10.4119 21.8577C10.2149 21.2822 10.0583 20.5712 10.0038 20.2597C9.90179 19.8603 9.69775 19.0613 9.50773 18.7093C9.40571 18.3098 9.01867 17.3823 9.00465 16.9353C8.95013 16.6239 8.88159 15.8654 8.95557 15.3709C8.95557 15.3709 9.35348 13.7924 9.15645 13.2169C8.95942 12.6414 8.95942 12.6414 8.76941 12.2894C8.57939 11.9374 8.25388 11.545 8.25388 11.545C8.25388 11.545 8.91034 11.0769 9.30983 10.9749C9.70932 10.8729 10.4818 11.2513 10.7123 11.4678C11.0308 11.6368 11.2948 11.4943 11.3283 11.1353C11.3143 10.6883 11.4217 9.83481 11.7737 9.64479C12.3422 9.22427 13.6217 8.64721 14.5016 8.17217C14.5016 8.17217 14.8007 9.14714 15.3427 9.30911C15.7492 9.43059 16.4267 9.63305 16.8332 9.75453L17.9647 10.1665C18.4187 10.3759 19.0152 10.8494 19.9707 11.3563C20.4722 11.6538 21.3732 11.8493 21.8747 12.1467C22.2407 12.4037 22.6138 12.8842 22.6683 13.1957C22.7773 13.8187 22.4798 14.3202 21.8164 14.5647C21.3764 14.8022 21.0174 14.7687 20.5229 14.6948C20.2519 14.6138 19.7574 14.5398 19.4864 14.4588C19.2154 14.3778 19.1679 14.2898 18.8969 14.2089C18.6119 13.6809 18.5644 13.5929 18.7069 13.8569Z" stroke="black" stroke-width="0.75" stroke-linecap="round" stroke-linejoin="round"/>
</g>
<path d="M15.4026 15.3143C15.5172 13.6239 15.1609 12.9585 13.7875 12.3224" stroke="black" stroke-width="0.75" stroke-linecap="round"/>
</g>
<defs>
<clipPath id="clip0_295_125">
<rect width="32" height="32" fill="white"/>
</clipPath>
</defs>
</svg>
