<svg width="62" height="55" viewBox="0 0 62 55" fill="none" xmlns="http://www.w3.org/2000/svg">
<path d="M2.13479 17.8798C-14.8373 -4.95352 76.3275 -6.71209 59.466 17.8623L57.455 52.1742C57.393 53.2315 56.5175 54.0572 55.4584 54.0572H6.14143C5.08231 54.0572 4.20683 53.2315 4.14486 52.1742L2.13479 17.8798Z" fill="white"/>
<mask id="mask0_923_820" style="mask-type:alpha" maskUnits="userSpaceOnUse" x="0" y="0" width="62" height="54">
<path d="M2.11696 17.7928C-14.8552 -5.04043 76.3096 -6.799 59.4482 17.7754L57.4372 52.0873C57.3752 53.1446 56.4997 53.9703 55.4406 53.9703H6.12361C5.06449 53.9703 4.18901 53.1446 4.12704 52.0873L2.11696 17.7928Z" fill="#FBD39E"/>
</mask>
<g mask="url(#mask0_923_820)">
<path d="M1.96583 38.3567C10.0569 48.2712 47.7742 49.0956 58.6533 48.5814L58.4771 57.6819H1.96583V38.3567Z" fill="black" fill-opacity="0.15"/>
<path d="M13.1223 53.6164C71.9948 42.4116 29.6572 -2.2865 11.4342 20.9586C6.01912 33.3853 33.497 37.5128 29.2757 26.1325C28.038 22.926 24.2304 25.3662 26.6602 27.339C28.9519 30.0517 19.1372 29.1383 22.7758 24.3119C31.7441 15.3622 42.9268 34.1674 26.0926 36.5791C8.99814 38.7754 -1.76152 18.0625 16.6563 11.7479C53.3912 -1.9249 73.339 33.8865 35.8877 53.647L13.1223 53.6164Z" fill="#890101" fill-opacity="0.3"/>
<path d="M13.0849 53.4199C12.9836 53.4392 12.9135 53.5323 12.9232 53.635C12.9328 53.7377 13.0189 53.8162 13.122 53.8164L35.8874 53.847C35.9201 53.8471 35.9522 53.8391 35.9811 53.8239C54.7553 43.918 59.238 29.9231 54.2704 20.0699C49.3108 10.2327 35.0118 4.70352 16.589 11.5595C11.9488 13.151 9.1184 15.6596 7.77581 18.5155C6.43304 21.3718 6.59273 24.5456 7.87452 27.4362C10.4358 33.2121 17.4854 37.8866 26.1181 36.7775L26.1181 36.7775L26.121 36.7771C30.3665 36.1689 32.889 34.52 34.1089 32.4894C35.3284 30.4592 35.2199 28.0903 34.2914 26.1004C33.3638 24.1127 31.6079 22.48 29.4961 21.9205C27.3728 21.3581 24.9209 21.8887 22.6345 24.1703C22.6279 24.1769 22.6217 24.184 22.6161 24.1915C21.6781 25.4357 21.5725 26.481 21.9922 27.2942C22.4011 28.0864 23.2771 28.5915 24.1576 28.8448C25.0367 29.0977 25.9853 29.1183 26.5839 28.8744C26.8855 28.7515 27.139 28.5425 27.1987 28.2224C27.2569 27.9095 27.1144 27.5667 26.813 27.21C26.8049 27.2004 26.796 27.1916 26.7863 27.1838C26.2145 26.7196 26.0408 26.2558 26.0692 25.8825C26.0979 25.504 26.3372 25.1685 26.6914 24.9674C27.0443 24.7671 27.4976 24.7092 27.9308 24.8773C28.3608 25.0442 28.7951 25.4437 29.0887 26.2033C29.6044 27.5945 29.6274 28.7246 29.3104 29.6206C28.9937 30.5158 28.328 31.2049 27.4127 31.6965C25.5724 32.6848 22.7562 32.8537 19.9475 32.2773C17.1423 31.7015 14.3915 30.3915 12.6802 28.4766C11.8264 27.5213 11.2336 26.4182 11.0163 25.1809C10.8001 23.9507 10.9528 22.5746 11.6075 21.0618C16.1116 15.3307 22.0891 13.7934 27.6264 14.8755C33.1809 15.9609 38.2924 19.6834 41.0152 24.4677C43.7332 29.2433 44.0688 35.0677 40.0976 40.3983C36.1161 45.7427 27.7822 50.6227 13.0849 53.4199Z" stroke="#890101" stroke-opacity="0.3" stroke-width="0.4" stroke-linejoin="round"/>
</g>
</svg>
