<svg width="73" height="47" viewBox="0 0 73 47" fill="none" xmlns="http://www.w3.org/2000/svg">
<path d="M13.7686 46.841C7.96837 46.841 2.40176 43.509 1.02392 37.8748C-10.3036 -8.44579 77.866 -14.0086 72.6579 36.1296C71.984 42.6169 65.9091 46.8407 59.3869 46.8407L13.7686 46.841Z" fill="white"/>
<mask id="mask0_911_814" style="mask-type:alpha" maskUnits="userSpaceOnUse" x="0" y="0" width="73" height="47">
<path d="M13.7686 46.841C7.96837 46.841 2.40176 43.509 1.02392 37.8748C-10.3036 -8.44579 77.866 -14.0086 72.6579 36.1296C71.984 42.6169 65.9091 46.8407 59.3869 46.8407L13.7686 46.841Z" fill="#614529"/>
</mask>
<g mask="url(#mask0_911_814)">
<path d="M-2.43506 26.5444C4.92819 43.5093 55.5054 42.4691 72.1821 37.1422L71.9502 46.5747H-2.43506V26.5444Z" fill="black" fill-opacity="0.3"/>
</g>
</svg>
