<svg width="70" height="50" viewBox="0 0 70 50" fill="none" xmlns="http://www.w3.org/2000/svg">
<path d="M3.39068 21.5744C-8.98147 7.05385 24.7305 -4.20008 33.7417 3.46588C34.4801 4.09405 36.4507 4.05019 37.1943 3.4282C45.5714 -3.57892 78.5763 5.15885 66.901 22.5866L64.1188 47.0739C63.9466 48.59 62.6638 49.7353 61.138 49.7353H9.7948C8.2922 49.7353 7.02136 48.6236 6.82147 47.1344L3.39068 21.5744Z" fill="#FFFEFD"/>
<mask id="mask0_913_799" style="mask-type:alpha" maskUnits="userSpaceOnUse" x="0" y="0" width="70" height="50">
<path d="M3.39068 21.5744C-8.98147 7.05385 24.7305 -4.20008 33.7417 3.46588C34.4801 4.09405 36.4507 4.05019 37.1943 3.4282C45.5714 -3.57892 78.5763 5.15885 66.901 22.5866L64.1188 47.0739C63.9466 48.59 62.6638 49.7353 61.138 49.7353H9.7948C8.2922 49.7353 7.02136 48.6236 6.82147 47.1344L3.39068 21.5744Z" fill="#CC7C03"/>
</mask>
<g mask="url(#mask0_913_799)">
<path d="M-1.12166 33.3411C3.8954 46.4817 58.5496 43.7714 67.634 43.5659L67.4202 52.6663H-1.12166V33.3411Z" fill="black" fill-opacity="0.15"/>
</g>
</svg>
