<svg width="68" height="52" viewBox="0 0 68 52" fill="none" xmlns="http://www.w3.org/2000/svg">
<path d="M34.2723 51.2898C64.3506 51.6063 67.176 40.8296 67.5487 31.8846C67.6438 28.3667 65.826 24.1591 62.8357 20.0462C63.0281 18.773 63.1204 17.2984 63.1019 15.5911C62.0734 8.9071 54.9704 3.1794 46.9907 3.06173C45.3462 3.10883 44.1377 3.57095 43.2601 4.31276C43.2149 2.49188 39.2579 1.021 34.3832 1.021C29.8124 1.021 26.0484 2.31424 25.5597 3.97664C24.6998 3.32286 23.5468 2.91949 22.0162 2.87566C14.0365 2.99332 6.93347 8.72102 5.90504 15.4051C5.88794 16.9825 5.96543 18.3613 6.12904 19.5661C2.89478 23.7924 0.891068 28.1177 0.957921 31.6361C1.15272 41.1738 4.19399 50.9733 34.2723 51.2898Z" fill="white"/>
<mask id="mask0_910_799" style="mask-type:alpha" maskUnits="userSpaceOnUse" x="0" y="0" width="68" height="52">
<path d="M67.6817 31.7617C67.3083 40.7245 64.4772 51.5227 34.3389 51.2056C4.20046 50.8885 1.15311 41.0695 0.957925 31.5127C0.752062 20.6783 20.1405 2.2092 34.6933 2.44521C49.2462 2.68122 67.9822 20.653 67.6817 31.7617Z" fill="#CC6926"/>
<path d="M27.0998 18.2549C26.9131 21.7408 30.908 27.6162 22.0158 27.6162C13.1235 27.6162 5.76234 29.3225 5.91489 15.249C6.94537 8.55164 14.0626 2.81249 22.0582 2.69459C30.7523 2.94358 27.2866 14.7691 27.0998 18.2549Z" fill="#CC6926"/>
<path d="M42.041 18.4417C42.2278 21.9275 38.2328 27.803 47.1251 27.803C56.0174 27.803 63.3785 29.5092 63.226 15.4358C62.1955 8.73838 55.0783 2.99924 47.0827 2.88134C38.3885 3.13033 41.8543 14.9558 42.041 18.4417Z" fill="#CC6926"/>
<path d="M43.345 4.16633C43.345 6.00538 39.3626 7.49623 34.45 7.49623C29.5375 7.49623 25.5551 6.00538 25.5551 4.16633C25.5551 2.32727 29.5375 0.836426 34.45 0.836426C39.3626 0.836426 43.345 2.32727 43.345 4.16633Z" fill="#CC6926"/>
</mask>
<g mask="url(#mask0_910_799)">
<path d="M1.04123 29.7964C13.7014 50.7624 55.727 45.0036 71.835 39.9343L71.3818 44.55C70.6825 51.6717 64.7251 57.1198 57.5693 57.1814L36.8386 57.3599L14.3482 57.3985C6.38133 57.4122 0.00900294 50.7842 0.335918 42.824L0.655256 35.0484L1.04123 29.7964Z" fill="black" fill-opacity="0.24"/>
</g>
</svg>
